<svg aria-roledescription="flowchart-v2" role="graphics-document document" viewBox="-8 -8 1407.96875 750" style="max-width: 1407.96875px;" xmlns:xlink="http://www.w3.org/1999/xlink" xmlns="http://www.w3.org/2000/svg" width="100%" id="jp-mermaid-2"><style>#jp-mermaid-2{font-family:system-ui,-apple-system,blinkmacsystemfont,'Segoe UI',helvetica,arial,sans-serif,'Apple Color Emoji','Segoe UI Emoji','Segoe UI Symbol';font-size:16px;fill:#333;}#jp-mermaid-2 .error-icon{fill:#552222;}#jp-mermaid-2 .error-text{fill:#552222;stroke:#552222;}#jp-mermaid-2 .edge-thickness-normal{stroke-width:2px;}#jp-mermaid-2 .edge-thickness-thick{stroke-width:3.5px;}#jp-mermaid-2 .edge-pattern-solid{stroke-dasharray:0;}#jp-mermaid-2 .edge-pattern-dashed{stroke-dasharray:3;}#jp-mermaid-2 .edge-pattern-dotted{stroke-dasharray:2;}#jp-mermaid-2 .marker{fill:#333333;stroke:#333333;}#jp-mermaid-2 .marker.cross{stroke:#333333;}#jp-mermaid-2 svg{font-family:system-ui,-apple-system,blinkmacsystemfont,'Segoe UI',helvetica,arial,sans-serif,'Apple Color Emoji','Segoe UI Emoji','Segoe UI Symbol';font-size:16px;}#jp-mermaid-2 .label{font-family:system-ui,-apple-system,blinkmacsystemfont,'Segoe UI',helvetica,arial,sans-serif,'Apple Color Emoji','Segoe UI Emoji','Segoe UI Symbol';color:#333;}#jp-mermaid-2 .cluster-label text{fill:#333;}#jp-mermaid-2 .cluster-label span,#jp-mermaid-2 p{color:#333;}#jp-mermaid-2 .label text,#jp-mermaid-2 span,#jp-mermaid-2 p{fill:#333;color:#333;}#jp-mermaid-2 .node rect,#jp-mermaid-2 .node circle,#jp-mermaid-2 .node ellipse,#jp-mermaid-2 .node polygon,#jp-mermaid-2 .node path{fill:#ECECFF;stroke:#9370DB;stroke-width:1px;}#jp-mermaid-2 .flowchart-label text{text-anchor:middle;}#jp-mermaid-2 .node .label{text-align:center;}#jp-mermaid-2 .node.clickable{cursor:pointer;}#jp-mermaid-2 .arrowheadPath{fill:#333333;}#jp-mermaid-2 .edgePath .path{stroke:#333333;stroke-width:2.0px;}#jp-mermaid-2 .flowchart-link{stroke:#333333;fill:none;}#jp-mermaid-2 .edgeLabel{background-color:#e8e8e8;text-align:center;}#jp-mermaid-2 .edgeLabel rect{opacity:0.5;background-color:#e8e8e8;fill:#e8e8e8;}#jp-mermaid-2 .labelBkg{background-color:rgba(232, 232, 232, 0.5);}#jp-mermaid-2 .cluster rect{fill:#ffffde;stroke:#aaaa33;stroke-width:1px;}#jp-mermaid-2 .cluster text{fill:#333;}#jp-mermaid-2 .cluster span,#jp-mermaid-2 p{color:#333;}#jp-mermaid-2 div.mermaidTooltip{position:absolute;text-align:center;max-width:200px;padding:2px;font-family:system-ui,-apple-system,blinkmacsystemfont,'Segoe UI',helvetica,arial,sans-serif,'Apple Color Emoji','Segoe UI Emoji','Segoe UI Symbol';font-size:12px;background:hsl(80, 100%, 96.2745098039%);border:1px solid #aaaa33;border-radius:2px;pointer-events:none;z-index:100;}#jp-mermaid-2 .flowchartTitleText{text-anchor:middle;font-size:18px;fill:#333;}#jp-mermaid-2 :root{--mermaid-font-family:system-ui,-apple-system,blinkmacsystemfont,'Segoe UI',helvetica,arial,sans-serif,'Apple Color Emoji','Segoe UI Emoji','Segoe UI Symbol';}</style><g><marker orient="auto" markerHeight="12" markerWidth="12" markerUnits="userSpaceOnUse" refY="5" refX="6" viewBox="0 0 10 10" class="marker flowchart" id="jp-mermaid-2_flowchart-pointEnd"><path style="stroke-width: 1; stroke-dasharray: 1, 0;" class="arrowMarkerPath" d="M 0 0 L 10 5 L 0 10 z"></path></marker><marker orient="auto" markerHeight="12" markerWidth="12" markerUnits="userSpaceOnUse" refY="5" refX="4.5" viewBox="0 0 10 10" class="marker flowchart" id="jp-mermaid-2_flowchart-pointStart"><path style="stroke-width: 1; stroke-dasharray: 1, 0;" class="arrowMarkerPath" d="M 0 5 L 10 10 L 10 0 z"></path></marker><marker orient="auto" markerHeight="11" markerWidth="11" markerUnits="userSpaceOnUse" refY="5" refX="11" viewBox="0 0 10 10" class="marker flowchart" id="jp-mermaid-2_flowchart-circleEnd"><circle style="stroke-width: 1; stroke-dasharray: 1, 0;" class="arrowMarkerPath" r="5" cy="5" cx="5"></circle></marker><marker orient="auto" markerHeight="11" markerWidth="11" markerUnits="userSpaceOnUse" refY="5" refX="-1" viewBox="0 0 10 10" class="marker flowchart" id="jp-mermaid-2_flowchart-circleStart"><circle style="stroke-width: 1; stroke-dasharray: 1, 0;" class="arrowMarkerPath" r="5" cy="5" cx="5"></circle></marker><marker orient="auto" markerHeight="11" markerWidth="11" markerUnits="userSpaceOnUse" refY="5.2" refX="12" viewBox="0 0 11 11" class="marker cross flowchart" id="jp-mermaid-2_flowchart-crossEnd"><path style="stroke-width: 2; stroke-dasharray: 1, 0;" class="arrowMarkerPath" d="M 1,1 l 9,9 M 10,1 l -9,9"></path></marker><marker orient="auto" markerHeight="11" markerWidth="11" markerUnits="userSpaceOnUse" refY="5.2" refX="-1" viewBox="0 0 11 11" class="marker cross flowchart" id="jp-mermaid-2_flowchart-crossStart"><path style="stroke-width: 2; stroke-dasharray: 1, 0;" class="arrowMarkerPath" d="M 1,1 l 9,9 M 10,1 l -9,9"></path></marker><g class="root"><g class="clusters"></g><g class="edgePaths"><path marker-end="url(#jp-mermaid-2_flowchart-pointEnd)" style="fill:none;" class="edge-thickness-normal edge-pattern-solid flowchart-link LS-N6d44e96331 LE-N6024dd0208" id="L-N6d44e96331-N6024dd0208-0" d="M555.086,37L555.086,41.167C555.086,45.333,555.086,53.667,555.086,61.117C555.086,68.567,555.086,75.133,555.086,78.417L555.086,81.7"></path><path marker-end="url(#jp-mermaid-2_flowchart-pointEnd)" style="fill:none;" class="edge-thickness-normal edge-pattern-solid flowchart-link LS-N6024dd0208 LE-N551bdc4b2a" id="L-N6024dd0208-N551bdc4b2a-0" d="M514.702,124L501.605,130C488.507,136,462.312,148,449.215,159.117C436.117,170.233,436.117,180.467,436.117,185.583L436.117,190.7"></path><path marker-end="url(#jp-mermaid-2_flowchart-pointEnd)" style="fill:none;" class="edge-thickness-normal edge-pattern-solid flowchart-link LS-N6024dd0208 LE-N6c600748c9" id="L-N6024dd0208-N6c600748c9-0" d="M595.47,124L608.567,130C621.665,136,647.86,148,660.957,159.117C674.055,170.233,674.055,180.467,674.055,185.583L674.055,190.7"></path><path marker-end="url(#jp-mermaid-2_flowchart-pointEnd)" style="fill:none;" class="edge-thickness-normal edge-pattern-solid flowchart-link LS-N6c600748c9 LE-N869693de5f" id="L-N6c600748c9-N869693de5f-0" d="M544.852,224.549L473.171,230.124C401.49,235.699,258.128,246.85,186.447,255.708C114.766,264.567,114.766,271.133,114.766,274.417L114.766,277.7"></path><path marker-end="url(#jp-mermaid-2_flowchart-pointEnd)" style="fill:none;" class="edge-thickness-normal edge-pattern-solid flowchart-link LS-N869693de5f LE-N48145fbbd5" id="L-N869693de5f-N48145fbbd5-0" d="M114.766,320L114.766,324.167C114.766,328.333,114.766,336.667,114.766,344.117C114.766,351.567,114.766,358.133,114.766,361.417L114.766,364.7"></path><path marker-end="url(#jp-mermaid-2_flowchart-pointEnd)" style="fill:none;" class="edge-thickness-normal edge-pattern-solid flowchart-link LS-N6c600748c9 LE-Ne6417b4e3f" id="L-N6c600748c9-Ne6417b4e3f-0" d="M555.263,233L528.508,237.167C501.754,241.333,448.244,249.667,421.489,257.117C394.734,264.567,394.734,271.133,394.734,274.417L394.734,277.7"></path><path marker-end="url(#jp-mermaid-2_flowchart-pointEnd)" style="fill:none;" class="edge-thickness-normal edge-pattern-solid flowchart-link LS-Ne6417b4e3f LE-N92fb628f43" id="L-Ne6417b4e3f-N92fb628f43-0" d="M394.734,320L394.734,324.167C394.734,328.333,394.734,336.667,394.734,344.117C394.734,351.567,394.734,358.133,394.734,361.417L394.734,364.7"></path><path marker-end="url(#jp-mermaid-2_flowchart-pointEnd)" style="fill:none;" class="edge-thickness-normal edge-pattern-solid flowchart-link LS-N6c600748c9 LE-Ne3f1d96ab0" id="L-N6c600748c9-Ne3f1d96ab0-0" d="M674.055,233L674.055,237.167C674.055,241.333,674.055,249.667,674.055,257.117C674.055,264.567,674.055,271.133,674.055,274.417L674.055,277.7"></path><path marker-end="url(#jp-mermaid-2_flowchart-pointEnd)" style="fill:none;" class="edge-thickness-normal edge-pattern-solid flowchart-link LS-Ne3f1d96ab0 LE-Ndf600ba93f" id="L-Ne3f1d96ab0-Ndf600ba93f-0" d="M674.055,320L674.055,324.167C674.055,328.333,674.055,336.667,674.055,344.117C674.055,351.567,674.055,358.133,674.055,361.417L674.055,364.7"></path><path marker-end="url(#jp-mermaid-2_flowchart-pointEnd)" style="fill:none;" class="edge-thickness-normal edge-pattern-solid flowchart-link LS-N6c600748c9 LE-N5f80768762" id="L-N6c600748c9-N5f80768762-0" d="M782.815,233L807.311,237.167C831.807,241.333,880.798,249.667,905.293,257.117C929.789,264.567,929.789,271.133,929.789,274.417L929.789,277.7"></path><path marker-end="url(#jp-mermaid-2_flowchart-pointEnd)" style="fill:none;" class="edge-thickness-normal edge-pattern-solid flowchart-link LS-N5f80768762 LE-N906ffdfbb3" id="L-N5f80768762-N906ffdfbb3-0" d="M929.789,320L929.789,324.167C929.789,328.333,929.789,336.667,929.789,344.117C929.789,351.567,929.789,358.133,929.789,361.417L929.789,364.7"></path><path marker-end="url(#jp-mermaid-2_flowchart-pointEnd)" style="fill:none;" class="edge-thickness-normal edge-pattern-solid flowchart-link LS-N6c600748c9 LE-N95950afde6" id="L-N6c600748c9-N95950afde6-0" d="M803.258,226.961L856.896,232.134C910.534,237.307,1017.81,247.654,1071.448,256.11C1125.086,264.567,1125.086,271.133,1125.086,274.417L1125.086,277.7"></path><path marker-end="url(#jp-mermaid-2_flowchart-pointEnd)" style="fill:none;" class="edge-thickness-normal edge-pattern-solid flowchart-link LS-N95950afde6 LE-N4cc3f4beb6" id="L-N95950afde6-N4cc3f4beb6-0" d="M1125.086,320L1125.086,324.167C1125.086,328.333,1125.086,336.667,1125.086,344.117C1125.086,351.567,1125.086,358.133,1125.086,361.417L1125.086,364.7"></path><path marker-end="url(#jp-mermaid-2_flowchart-pointEnd)" style="fill:none;" class="edge-thickness-normal edge-pattern-solid flowchart-link LS-N4cc3f4beb6 LE-N3390c27f2b" id="L-N4cc3f4beb6-N3390c27f2b-0" d="M1081.133,406.184L1065.882,412.32C1050.63,418.456,1020.128,430.728,1004.876,441.981C989.625,453.233,989.625,463.467,989.625,468.583L989.625,473.7"></path><path marker-end="url(#jp-mermaid-2_flowchart-pointEnd)" style="fill:none;" class="edge-thickness-normal edge-pattern-solid flowchart-link LS-N3390c27f2b LE-N063445af97" id="L-N3390c27f2b-N063445af97-0" d="M955.762,516L944.78,522C933.797,528,911.832,540,900.85,551.117C889.867,562.233,889.867,572.467,889.867,577.583L889.867,582.7"></path><path marker-end="url(#jp-mermaid-2_flowchart-pointEnd)" style="fill:none;" class="edge-thickness-normal edge-pattern-solid flowchart-link LS-N3390c27f2b LE-N0addac95fb" id="L-N3390c27f2b-N0addac95fb-0" d="M1023.488,516L1034.47,522C1045.453,528,1067.418,540,1078.4,551.117C1089.383,562.233,1089.383,572.467,1089.383,577.583L1089.383,582.7"></path><path marker-end="url(#jp-mermaid-2_flowchart-pointEnd)" style="fill:none;" class="edge-thickness-normal edge-pattern-solid flowchart-link LS-N4cc3f4beb6 LE-N826d27e2c5" id="L-N4cc3f4beb6-N826d27e2c5-0" d="M1169.039,404.753L1186.278,411.127C1203.517,417.502,1237.995,430.251,1255.234,441.742C1272.473,453.233,1272.473,463.467,1272.473,468.583L1272.473,473.7"></path><path marker-end="url(#jp-mermaid-2_flowchart-pointEnd)" style="fill:none;" class="edge-thickness-normal edge-pattern-solid flowchart-link LS-N826d27e2c5 LE-N01e47c672a" id="L-N826d27e2c5-N01e47c672a-0" d="M1289.766,516L1295.375,522C1300.983,528,1312.201,540,1317.809,551.117C1323.418,562.233,1323.418,572.467,1323.418,577.583L1323.418,582.7"></path><path marker-end="url(#jp-mermaid-2_flowchart-pointEnd)" style="fill:none;" class="edge-thickness-normal edge-pattern-solid flowchart-link LS-N01e47c672a LE-Neac43149f1" id="L-N01e47c672a-Neac43149f1-0" d="M1298.838,625L1290.867,631C1282.895,637,1266.951,649,1253.974,660.355C1240.997,671.709,1230.986,682.419,1225.981,687.773L1220.975,693.128"></path><path marker-end="url(#jp-mermaid-2_flowchart-pointEnd)" style="fill:none;" class="edge-thickness-normal edge-pattern-solid flowchart-link LS-N01e47c672a LE-Ne08c2337b8" id="L-N01e47c672a-Ne08c2337b8-0" d="M1330.704,625L1333.067,631C1335.43,637,1340.157,649,1342.52,660.117C1344.883,671.233,1344.883,681.467,1344.883,686.583L1344.883,691.7"></path><path marker-end="url(#jp-mermaid-2_flowchart-pointEnd)" style="fill:none;" class="edge-thickness-normal edge-pattern-solid flowchart-link LS-N826d27e2c5 LE-Neac43149f1" id="L-N826d27e2c5-Neac43149f1-0" d="M1242.658,516L1232.989,522C1223.319,528,1203.98,540,1194.31,555.083C1184.641,570.167,1184.641,588.333,1184.641,606.5C1184.641,624.667,1184.641,642.833,1186.098,657.067C1187.555,671.3,1190.47,681.6,1191.927,686.75L1193.384,691.9"></path></g><g class="edgeLabels"><g class="edgeLabel"><g transform="translate(0, 0)" class="label"><foreignObject height="0" width="0"><div style="display: inline-block; white-space: nowrap;" xmlns="http://www.w3.org/1999/xhtml"><span class="edgeLabel"></span></div></foreignObject></g></g><g transform="translate(436.1171875, 160)" class="edgeLabel"><g transform="translate(-16.46875, -11)" class="label"><foreignObject height="22" width="32.9375"><div style="display: inline-block; white-space: nowrap;" xmlns="http://www.w3.org/1999/xhtml"><span class="edgeLabel">args</span></div></foreignObject></g></g><g transform="translate(674.0546875, 160)" class="edgeLabel"><g transform="translate(-18.765625, -11)" class="label"><foreignObject height="22" width="37.53125"><div style="display: inline-block; white-space: nowrap;" xmlns="http://www.w3.org/1999/xhtml"><span class="edgeLabel">body</span></div></foreignObject></g></g><g class="edgeLabel"><g transform="translate(0, 0)" class="label"><foreignObject height="0" width="0"><div style="display: inline-block; white-space: nowrap;" xmlns="http://www.w3.org/1999/xhtml"><span class="edgeLabel"></span></div></foreignObject></g></g><g class="edgeLabel"><g transform="translate(0, 0)" class="label"><foreignObject height="0" width="0"><div style="display: inline-block; white-space: nowrap;" xmlns="http://www.w3.org/1999/xhtml"><span class="edgeLabel"></span></div></foreignObject></g></g><g class="edgeLabel"><g transform="translate(0, 0)" class="label"><foreignObject height="0" width="0"><div style="display: inline-block; white-space: nowrap;" xmlns="http://www.w3.org/1999/xhtml"><span class="edgeLabel"></span></div></foreignObject></g></g><g class="edgeLabel"><g transform="translate(0, 0)" class="label"><foreignObject height="0" width="0"><div style="display: inline-block; white-space: nowrap;" xmlns="http://www.w3.org/1999/xhtml"><span class="edgeLabel"></span></div></foreignObject></g></g><g class="edgeLabel"><g transform="translate(0, 0)" class="label"><foreignObject height="0" width="0"><div style="display: inline-block; white-space: nowrap;" xmlns="http://www.w3.org/1999/xhtml"><span class="edgeLabel"></span></div></foreignObject></g></g><g class="edgeLabel"><g transform="translate(0, 0)" class="label"><foreignObject height="0" width="0"><div style="display: inline-block; white-space: nowrap;" xmlns="http://www.w3.org/1999/xhtml"><span class="edgeLabel"></span></div></foreignObject></g></g><g class="edgeLabel"><g transform="translate(0, 0)" class="label"><foreignObject height="0" width="0"><div style="display: inline-block; white-space: nowrap;" xmlns="http://www.w3.org/1999/xhtml"><span class="edgeLabel"></span></div></foreignObject></g></g><g class="edgeLabel"><g transform="translate(0, 0)" class="label"><foreignObject height="0" width="0"><div style="display: inline-block; white-space: nowrap;" xmlns="http://www.w3.org/1999/xhtml"><span class="edgeLabel"></span></div></foreignObject></g></g><g class="edgeLabel"><g transform="translate(0, 0)" class="label"><foreignObject height="0" width="0"><div style="display: inline-block; white-space: nowrap;" xmlns="http://www.w3.org/1999/xhtml"><span class="edgeLabel"></span></div></foreignObject></g></g><g class="edgeLabel"><g transform="translate(0, 0)" class="label"><foreignObject height="0" width="0"><div style="display: inline-block; white-space: nowrap;" xmlns="http://www.w3.org/1999/xhtml"><span class="edgeLabel"></span></div></foreignObject></g></g><g transform="translate(989.625, 443)" class="edgeLabel"><g transform="translate(-10.84375, -11)" class="label"><foreignObject height="22" width="21.6875"><div style="display: inline-block; white-space: nowrap;" xmlns="http://www.w3.org/1999/xhtml"><span class="edgeLabel">lhs</span></div></foreignObject></g></g><g transform="translate(889.8671875, 552)" class="edgeLabel"><g transform="translate(-10.84375, -11)" class="label"><foreignObject height="22" width="21.6875"><div style="display: inline-block; white-space: nowrap;" xmlns="http://www.w3.org/1999/xhtml"><span class="edgeLabel">lhs</span></div></foreignObject></g></g><g transform="translate(1089.3828125, 552)" class="edgeLabel"><g transform="translate(-12.0859375, -11)" class="label"><foreignObject height="22" width="24.171875"><div style="display: inline-block; white-space: nowrap;" xmlns="http://www.w3.org/1999/xhtml"><span class="edgeLabel">rhs</span></div></foreignObject></g></g><g transform="translate(1272.47265625, 443)" class="edgeLabel"><g transform="translate(-12.0859375, -11)" class="label"><foreignObject height="22" width="24.171875"><div style="display: inline-block; white-space: nowrap;" xmlns="http://www.w3.org/1999/xhtml"><span class="edgeLabel">rhs</span></div></foreignObject></g></g><g transform="translate(1323.41796875, 552)" class="edgeLabel"><g transform="translate(-10.84375, -11)" class="label"><foreignObject height="22" width="21.6875"><div style="display: inline-block; white-space: nowrap;" xmlns="http://www.w3.org/1999/xhtml"><span class="edgeLabel">lhs</span></div></foreignObject></g></g><g transform="translate(1251.0078125, 661)" class="edgeLabel"><g transform="translate(-10.84375, -11)" class="label"><foreignObject height="22" width="21.6875"><div style="display: inline-block; white-space: nowrap;" xmlns="http://www.w3.org/1999/xhtml"><span class="edgeLabel">lhs</span></div></foreignObject></g></g><g transform="translate(1344.8828125, 661)" class="edgeLabel"><g transform="translate(-12.0859375, -11)" class="label"><foreignObject height="22" width="24.171875"><div style="display: inline-block; white-space: nowrap;" xmlns="http://www.w3.org/1999/xhtml"><span class="edgeLabel">rhs</span></div></foreignObject></g></g><g transform="translate(1184.640625, 606.5)" class="edgeLabel"><g transform="translate(-12.0859375, -11)" class="label"><foreignObject height="22" width="24.171875"><div style="display: inline-block; white-space: nowrap;" xmlns="http://www.w3.org/1999/xhtml"><span class="edgeLabel">rhs</span></div></foreignObject></g></g></g><g class="nodes"><g transform="translate(555.0859375, 18.5)" id="flowchart-N6d44e96331-131" class="node default default flowchart-label"><rect height="37" width="131.15625" y="-18.5" x="-65.578125" ry="0" rx="0" style="" class="basic label-container"></rect><g transform="translate(-58.078125, -11)" style="" class="label"><rect></rect><foreignObject height="22" width="116.15625"><div style="display: inline-block; white-space: nowrap;" xmlns="http://www.w3.org/1999/xhtml"><span class="nodeLabel">MODULE[main]</span></div></foreignObject></g></g><g transform="translate(555.0859375, 105.5)" id="flowchart-N6024dd0208-132" class="node default default flowchart-label"><rect height="37" width="178.765625" y="-18.5" x="-89.3828125" ry="0" rx="0" style="" class="basic label-container"></rect><g transform="translate(-81.8828125, -11)" style="" class="label"><rect></rect><foreignObject height="22" width="163.765625"><div style="display: inline-block; white-space: nowrap;" xmlns="http://www.w3.org/1999/xhtml"><span class="nodeLabel">FUNCTION-DEF[main]</span></div></foreignObject></g></g><g transform="translate(436.1171875, 214.5)" id="flowchart-N551bdc4b2a-135" class="node default default flowchart-label"><rect height="37" width="117.46875" y="-18.5" x="-58.734375" ry="0" rx="0" style="" class="basic label-container"></rect><g transform="translate(-51.234375, -11)" style="" class="label"><rect></rect><foreignObject height="22" width="102.46875"><div style="display: inline-block; white-space: nowrap;" xmlns="http://www.w3.org/1999/xhtml"><span class="nodeLabel">Arguments(0)</span></div></foreignObject></g></g><g transform="translate(674.0546875, 214.5)" id="flowchart-N6c600748c9-138" class="node default default flowchart-label"><rect height="37" width="258.40625" y="-18.5" x="-129.203125" ry="0" rx="0" style="" class="basic label-container"></rect><g transform="translate(-121.703125, -11)" style="" class="label"><rect></rect><foreignObject height="22" width="243.40625"><div style="display: inline-block; white-space: nowrap;" xmlns="http://www.w3.org/1999/xhtml"><span class="nodeLabel">BLOCK[entry-135197992912208]</span></div></foreignObject></g></g><g transform="translate(114.765625, 301.5)" id="flowchart-N869693de5f-141" class="node default default flowchart-label"><rect height="37" width="229.53125" y="-18.5" x="-114.765625" ry="0" rx="0" style="" class="basic label-container"></rect><g transform="translate(-107.265625, -11)" style="" class="label"><rect></rect><foreignObject height="22" width="214.53125"><div style="display: inline-block; white-space: nowrap;" xmlns="http://www.w3.org/1999/xhtml"><span class="nodeLabel">VariableDeclaration[a, Int32]</span></div></foreignObject></g></g><g transform="translate(114.765625, 388.5)" id="flowchart-N48145fbbd5-144" class="node default default flowchart-label"><rect height="37" width="202.6875" y="-18.5" x="-101.34375" ry="0" rx="0" style="" class="basic label-container"></rect><g transform="translate(-93.84375, -11)" style="" class="label"><rect></rect><foreignObject height="22" width="187.6875"><div style="display: inline-block; white-space: nowrap;" xmlns="http://www.w3.org/1999/xhtml"><span class="nodeLabel">Literal[Int32: temp_28]: 1</span></div></foreignObject></g></g><g transform="translate(394.734375, 301.5)" id="flowchart-Ne6417b4e3f-147" class="node default default flowchart-label"><rect height="37" width="230.40625" y="-18.5" x="-115.203125" ry="0" rx="0" style="" class="basic label-container"></rect><g transform="translate(-107.703125, -11)" style="" class="label"><rect></rect><foreignObject height="22" width="215.40625"><div style="display: inline-block; white-space: nowrap;" xmlns="http://www.w3.org/1999/xhtml"><span class="nodeLabel">VariableDeclaration[b, Int32]</span></div></foreignObject></g></g><g transform="translate(394.734375, 388.5)" id="flowchart-N92fb628f43-150" class="node default default flowchart-label"><rect height="37" width="202.6875" y="-18.5" x="-101.34375" ry="0" rx="0" style="" class="basic label-container"></rect><g transform="translate(-93.84375, -11)" style="" class="label"><rect></rect><foreignObject height="22" width="187.6875"><div style="display: inline-block; white-space: nowrap;" xmlns="http://www.w3.org/1999/xhtml"><span class="nodeLabel">Literal[Int32: temp_31]: 2</span></div></foreignObject></g></g><g transform="translate(674.0546875, 301.5)" id="flowchart-Ne3f1d96ab0-153" class="node default default flowchart-label"><rect height="37" width="228.234375" y="-18.5" x="-114.1171875" ry="0" rx="0" style="" class="basic label-container"></rect><g transform="translate(-106.6171875, -11)" style="" class="label"><rect></rect><foreignObject height="22" width="213.234375"><div style="display: inline-block; white-space: nowrap;" xmlns="http://www.w3.org/1999/xhtml"><span class="nodeLabel">VariableDeclaration[c, Int32]</span></div></foreignObject></g></g><g transform="translate(674.0546875, 388.5)" id="flowchart-Ndf600ba93f-156" class="node default default flowchart-label"><rect height="37" width="202.6875" y="-18.5" x="-101.34375" ry="0" rx="0" style="" class="basic label-container"></rect><g transform="translate(-93.84375, -11)" style="" class="label"><rect></rect><foreignObject height="22" width="187.6875"><div style="display: inline-block; white-space: nowrap;" xmlns="http://www.w3.org/1999/xhtml"><span class="nodeLabel">Literal[Int32: temp_34]: 1</span></div></foreignObject></g></g><g transform="translate(929.7890625, 301.5)" id="flowchart-N5f80768762-159" class="node default default flowchart-label"><rect height="37" width="183.234375" y="-18.5" x="-91.6171875" ry="0" rx="0" style="" class="basic label-container"></rect><g transform="translate(-84.1171875, -11)" style="" class="label"><rect></rect><foreignObject height="22" width="168.234375"><div style="display: inline-block; white-space: nowrap;" xmlns="http://www.w3.org/1999/xhtml"><span class="nodeLabel">VariableAssignment[c]</span></div></foreignObject></g></g><g transform="translate(929.7890625, 388.5)" id="flowchart-N906ffdfbb3-162" class="node default default flowchart-label"><rect height="37" width="202.6875" y="-18.5" x="-101.34375" ry="0" rx="0" style="" class="basic label-container"></rect><g transform="translate(-93.84375, -11)" style="" class="label"><rect></rect><foreignObject height="22" width="187.6875"><div style="display: inline-block; white-space: nowrap;" xmlns="http://www.w3.org/1999/xhtml"><span class="nodeLabel">Literal[Int32: temp_36]: 3</span></div></foreignObject></g></g><g transform="translate(1125.0859375, 301.5)" id="flowchart-N95950afde6-165" class="node default default flowchart-label"><rect height="37" width="76.5625" y="-18.5" x="-38.28125" ry="0" rx="0" style="" class="basic label-container"></rect><g transform="translate(-30.78125, -11)" style="" class="label"><rect></rect><foreignObject height="22" width="61.5625"><div style="display: inline-block; white-space: nowrap;" xmlns="http://www.w3.org/1999/xhtml"><span class="nodeLabel">RETURN</span></div></foreignObject></g></g><g transform="translate(1125.0859375, 388.5)" id="flowchart-N4cc3f4beb6-168" class="node default default flowchart-label"><rect height="37" width="87.90625" y="-18.5" x="-43.953125" ry="0" rx="0" style="" class="basic label-container"></rect><g transform="translate(-36.453125, -11)" style="" class="label"><rect></rect><foreignObject height="22" width="72.90625"><div style="display: inline-block; white-space: nowrap;" xmlns="http://www.w3.org/1999/xhtml"><span class="nodeLabel">BINARY[-]</span></div></foreignObject></g></g><g transform="translate(989.625, 497.5)" id="flowchart-N3390c27f2b-171" class="node default default flowchart-label"><rect height="37" width="91.90625" y="-18.5" x="-45.953125" ry="0" rx="0" style="" class="basic label-container"></rect><g transform="translate(-38.453125, -11)" style="" class="label"><rect></rect><foreignObject height="22" width="76.90625"><div style="display: inline-block; white-space: nowrap;" xmlns="http://www.w3.org/1999/xhtml"><span class="nodeLabel">BINARY[+]</span></div></foreignObject></g></g><g transform="translate(889.8671875, 606.5)" id="flowchart-N063445af97-174" class="node default default flowchart-label"><rect height="37" width="202.6875" y="-18.5" x="-101.34375" ry="0" rx="0" style="" class="basic label-container"></rect><g transform="translate(-93.84375, -11)" style="" class="label"><rect></rect><foreignObject height="22" width="187.6875"><div style="display: inline-block; white-space: nowrap;" xmlns="http://www.w3.org/1999/xhtml"><span class="nodeLabel">Literal[Int32: temp_41]: 1</span></div></foreignObject></g></g><g transform="translate(1089.3828125, 606.5)" id="flowchart-N0addac95fb-177" class="node default default flowchart-label"><rect height="37" width="96.34375" y="-18.5" x="-48.171875" ry="0" rx="0" style="" class="basic label-container"></rect><g transform="translate(-40.671875, -11)" style="" class="label"><rect></rect><foreignObject height="22" width="81.34375"><div style="display: inline-block; white-space: nowrap;" xmlns="http://www.w3.org/1999/xhtml"><span class="nodeLabel">Variable[b]</span></div></foreignObject></g></g><g transform="translate(1272.47265625, 497.5)" id="flowchart-N826d27e2c5-180" class="node default default flowchart-label"><rect height="37" width="88.703125" y="-18.5" x="-44.3515625" ry="0" rx="0" style="" class="basic label-container"></rect><g transform="translate(-36.8515625, -11)" style="" class="label"><rect></rect><foreignObject height="22" width="73.703125"><div style="display: inline-block; white-space: nowrap;" xmlns="http://www.w3.org/1999/xhtml"><span class="nodeLabel">BINARY[/]</span></div></foreignObject></g></g><g transform="translate(1323.41796875, 606.5)" id="flowchart-N01e47c672a-183" class="node default default flowchart-label"><rect height="37" width="91.5625" y="-18.5" x="-45.78125" ry="0" rx="0" style="" class="basic label-container"></rect><g transform="translate(-38.28125, -11)" style="" class="label"><rect></rect><foreignObject height="22" width="76.5625"><div style="display: inline-block; white-space: nowrap;" xmlns="http://www.w3.org/1999/xhtml"><span class="nodeLabel">BINARY[*]</span></div></foreignObject></g></g><g transform="translate(1200.0625, 715.5)" id="flowchart-Neac43149f1-186" class="node default default flowchart-label"><rect height="37" width="95.46875" y="-18.5" x="-47.734375" ry="0" rx="0" style="" class="basic label-container"></rect><g transform="translate(-40.234375, -11)" style="" class="label"><rect></rect><foreignObject height="22" width="80.46875"><div style="display: inline-block; white-space: nowrap;" xmlns="http://www.w3.org/1999/xhtml"><span class="nodeLabel">Variable[a]</span></div></foreignObject></g></g><g transform="translate(1344.8828125, 715.5)" id="flowchart-Ne08c2337b8-189" class="node default default flowchart-label"><rect height="37" width="94.171875" y="-18.5" x="-47.0859375" ry="0" rx="0" style="" class="basic label-container"></rect><g transform="translate(-39.5859375, -11)" style="" class="label"><rect></rect><foreignObject height="22" width="79.171875"><div style="display: inline-block; white-space: nowrap;" xmlns="http://www.w3.org/1999/xhtml"><span class="nodeLabel">Variable[c]</span></div></foreignObject></g></g></g></g></g></svg>