<svg aria-roledescription="flowchart-v2" role="graphics-document document" viewBox="-8 -8 731.63671875 489" style="max-width: 731.63671875px;" xmlns:xlink="http://www.w3.org/1999/xlink" xmlns="http://www.w3.org/2000/svg" width="100%" id="jp-mermaid-42"><style>#jp-mermaid-42{font-family:system-ui,-apple-system,blinkmacsystemfont,'Segoe UI',helvetica,arial,sans-serif,'Apple Color Emoji','Segoe UI Emoji','Segoe UI Symbol';font-size:16px;fill:#333;}#jp-mermaid-42 .error-icon{fill:#552222;}#jp-mermaid-42 .error-text{fill:#552222;stroke:#552222;}#jp-mermaid-42 .edge-thickness-normal{stroke-width:2px;}#jp-mermaid-42 .edge-thickness-thick{stroke-width:3.5px;}#jp-mermaid-42 .edge-pattern-solid{stroke-dasharray:0;}#jp-mermaid-42 .edge-pattern-dashed{stroke-dasharray:3;}#jp-mermaid-42 .edge-pattern-dotted{stroke-dasharray:2;}#jp-mermaid-42 .marker{fill:#333333;stroke:#333333;}#jp-mermaid-42 .marker.cross{stroke:#333333;}#jp-mermaid-42 svg{font-family:system-ui,-apple-system,blinkmacsystemfont,'Segoe UI',helvetica,arial,sans-serif,'Apple Color Emoji','Segoe UI Emoji','Segoe UI Symbol';font-size:16px;}#jp-mermaid-42 .label{font-family:system-ui,-apple-system,blinkmacsystemfont,'Segoe UI',helvetica,arial,sans-serif,'Apple Color Emoji','Segoe UI Emoji','Segoe UI Symbol';color:#333;}#jp-mermaid-42 .cluster-label text{fill:#333;}#jp-mermaid-42 .cluster-label span,#jp-mermaid-42 p{color:#333;}#jp-mermaid-42 .label text,#jp-mermaid-42 span,#jp-mermaid-42 p{fill:#333;color:#333;}#jp-mermaid-42 .node rect,#jp-mermaid-42 .node circle,#jp-mermaid-42 .node ellipse,#jp-mermaid-42 .node polygon,#jp-mermaid-42 .node path{fill:#ECECFF;stroke:#9370DB;stroke-width:1px;}#jp-mermaid-42 .flowchart-label text{text-anchor:middle;}#jp-mermaid-42 .node .label{text-align:center;}#jp-mermaid-42 .node.clickable{cursor:pointer;}#jp-mermaid-42 .arrowheadPath{fill:#333333;}#jp-mermaid-42 .edgePath .path{stroke:#333333;stroke-width:2.0px;}#jp-mermaid-42 .flowchart-link{stroke:#333333;fill:none;}#jp-mermaid-42 .edgeLabel{background-color:#e8e8e8;text-align:center;}#jp-mermaid-42 .edgeLabel rect{opacity:0.5;background-color:#e8e8e8;fill:#e8e8e8;}#jp-mermaid-42 .labelBkg{background-color:rgba(232, 232, 232, 0.5);}#jp-mermaid-42 .cluster rect{fill:#ffffde;stroke:#aaaa33;stroke-width:1px;}#jp-mermaid-42 .cluster text{fill:#333;}#jp-mermaid-42 .cluster span,#jp-mermaid-42 p{color:#333;}#jp-mermaid-42 div.mermaidTooltip{position:absolute;text-align:center;max-width:200px;padding:2px;font-family:system-ui,-apple-system,blinkmacsystemfont,'Segoe UI',helvetica,arial,sans-serif,'Apple Color Emoji','Segoe UI Emoji','Segoe UI Symbol';font-size:12px;background:hsl(80, 100%, 96.2745098039%);border:1px solid #aaaa33;border-radius:2px;pointer-events:none;z-index:100;}#jp-mermaid-42 .flowchartTitleText{text-anchor:middle;font-size:18px;fill:#333;}#jp-mermaid-42 :root{--mermaid-font-family:system-ui,-apple-system,blinkmacsystemfont,'Segoe UI',helvetica,arial,sans-serif,'Apple Color Emoji','Segoe UI Emoji','Segoe UI Symbol';}</style><g><marker orient="auto" markerHeight="12" markerWidth="12" markerUnits="userSpaceOnUse" refY="5" refX="6" viewBox="0 0 10 10" class="marker flowchart" id="jp-mermaid-42_flowchart-pointEnd"><path style="stroke-width: 1; stroke-dasharray: 1, 0;" class="arrowMarkerPath" d="M 0 0 L 10 5 L 0 10 z"></path></marker><marker orient="auto" markerHeight="12" markerWidth="12" markerUnits="userSpaceOnUse" refY="5" refX="4.5" viewBox="0 0 10 10" class="marker flowchart" id="jp-mermaid-42_flowchart-pointStart"><path style="stroke-width: 1; stroke-dasharray: 1, 0;" class="arrowMarkerPath" d="M 0 5 L 10 10 L 10 0 z"></path></marker><marker orient="auto" markerHeight="11" markerWidth="11" markerUnits="userSpaceOnUse" refY="5" refX="11" viewBox="0 0 10 10" class="marker flowchart" id="jp-mermaid-42_flowchart-circleEnd"><circle style="stroke-width: 1; stroke-dasharray: 1, 0;" class="arrowMarkerPath" r="5" cy="5" cx="5"></circle></marker><marker orient="auto" markerHeight="11" markerWidth="11" markerUnits="userSpaceOnUse" refY="5" refX="-1" viewBox="0 0 10 10" class="marker flowchart" id="jp-mermaid-42_flowchart-circleStart"><circle style="stroke-width: 1; stroke-dasharray: 1, 0;" class="arrowMarkerPath" r="5" cy="5" cx="5"></circle></marker><marker orient="auto" markerHeight="11" markerWidth="11" markerUnits="userSpaceOnUse" refY="5.2" refX="12" viewBox="0 0 11 11" class="marker cross flowchart" id="jp-mermaid-42_flowchart-crossEnd"><path style="stroke-width: 2; stroke-dasharray: 1, 0;" class="arrowMarkerPath" d="M 1,1 l 9,9 M 10,1 l -9,9"></path></marker><marker orient="auto" markerHeight="11" markerWidth="11" markerUnits="userSpaceOnUse" refY="5.2" refX="-1" viewBox="0 0 11 11" class="marker cross flowchart" id="jp-mermaid-42_flowchart-crossStart"><path style="stroke-width: 2; stroke-dasharray: 1, 0;" class="arrowMarkerPath" d="M 1,1 l 9,9 M 10,1 l -9,9"></path></marker><g class="root"><g class="clusters"></g><g class="edgePaths"><path marker-end="url(#jp-mermaid-42_flowchart-pointEnd)" style="fill:none;" class="edge-thickness-normal edge-pattern-solid flowchart-link LS-Nebe0a04826 LE-N981c729bc0" id="L-Nebe0a04826-N981c729bc0-0" d="M365.19,37L357.577,43C349.964,49,334.738,61,327.125,72.117C319.512,83.233,319.512,93.467,319.512,98.583L319.512,103.7"></path><path marker-end="url(#jp-mermaid-42_flowchart-pointEnd)" style="fill:none;" class="edge-thickness-normal edge-pattern-solid flowchart-link LS-N981c729bc0 LE-N57ccd587e2" id="L-N981c729bc0-N57ccd587e2-0" d="M275.559,139.678L250.1,146.732C224.642,153.785,173.725,167.893,148.267,180.063C122.809,192.233,122.809,202.467,122.809,207.583L122.809,212.7"></path><path marker-end="url(#jp-mermaid-42_flowchart-pointEnd)" style="fill:none;" class="edge-thickness-normal edge-pattern-solid flowchart-link LS-N57ccd587e2 LE-Ne2e32e7b31" id="L-N57ccd587e2-Ne2e32e7b31-0" d="M115.522,255L113.159,261C110.796,267,106.07,279,103.707,290.117C101.344,301.233,101.344,311.467,101.344,316.583L101.344,321.7"></path><path marker-end="url(#jp-mermaid-42_flowchart-pointEnd)" style="fill:none;" class="edge-thickness-normal edge-pattern-solid flowchart-link LS-N57ccd587e2 LE-N0addac95fb" id="L-N57ccd587e2-N0addac95fb-0" d="M168.762,248.798L195.044,255.832C221.327,262.865,273.892,276.933,312.142,289.591C350.392,302.249,374.326,313.497,386.294,319.121L398.261,324.746"></path><path marker-end="url(#jp-mermaid-42_flowchart-pointEnd)" style="fill:none;" class="edge-thickness-normal edge-pattern-solid flowchart-link LS-N981c729bc0 LE-N826d27e2c5" id="L-N981c729bc0-N826d27e2c5-0" d="M363.465,139.976L388.14,146.98C412.815,153.984,462.165,167.992,486.84,180.113C511.516,192.233,511.516,202.467,511.516,207.583L511.516,212.7"></path><path marker-end="url(#jp-mermaid-42_flowchart-pointEnd)" style="fill:none;" class="edge-thickness-normal edge-pattern-solid flowchart-link LS-N826d27e2c5 LE-N01e47c672a" id="L-N826d27e2c5-N01e47c672a-0" d="M467.164,253.507L450.868,259.756C434.572,266.005,401.979,278.502,378.576,290.213C355.173,301.923,340.958,312.847,333.851,318.309L326.744,323.77"></path><path marker-end="url(#jp-mermaid-42_flowchart-pointEnd)" style="fill:none;" class="edge-thickness-normal edge-pattern-solid flowchart-link LS-N01e47c672a LE-Neac43149f1" id="L-N01e47c672a-Neac43149f1-0" d="M291.183,364L288.819,370C286.456,376,281.73,388,316.561,401.342C351.392,414.684,425.78,429.367,462.974,436.709L500.168,444.051"></path><path marker-end="url(#jp-mermaid-42_flowchart-pointEnd)" style="fill:none;" class="edge-thickness-normal edge-pattern-solid flowchart-link LS-N01e47c672a LE-Ne08c2337b8" id="L-N01e47c672a-Ne08c2337b8-0" d="M314.489,364L319.685,370C324.881,376,335.272,388,333.279,399.465C331.286,410.931,316.908,421.862,309.719,427.327L302.53,432.792"></path><path marker-end="url(#jp-mermaid-42_flowchart-pointEnd)" style="fill:none;" class="edge-thickness-normal edge-pattern-solid flowchart-link LS-N826d27e2c5 LE-Neac43149f1" id="L-N826d27e2c5-Neac43149f1-0" d="M520.397,255L523.277,261C526.158,267,531.919,279,534.799,294.083C537.68,309.167,537.68,327.333,537.68,345.5C537.68,363.667,537.68,381.833,539.137,396.067C540.594,410.3,543.509,420.6,544.966,425.75L546.424,430.9"></path><path marker-end="url(#jp-mermaid-42_flowchart-pointEnd)" style="fill:none;" class="edge-thickness-normal edge-pattern-solid flowchart-link LS-Nebe0a04826 LE-Nc5f972e8ee" id="L-Nebe0a04826-Nc5f972e8ee-0" d="M434.617,28.09L470.484,35.575C506.352,43.06,578.086,58.03,613.953,74.598C649.82,91.167,649.82,109.333,649.82,127.5C649.82,145.667,649.82,163.833,649.82,178.033C649.82,192.233,649.82,202.467,649.82,207.583L649.82,212.7"></path><path marker-end="url(#jp-mermaid-42_flowchart-pointEnd)" style="fill:none;" class="edge-thickness-normal edge-pattern-solid flowchart-link LS-Nc5f972e8ee LE-N0addac95fb" id="L-Nc5f972e8ee-N0addac95fb-0" d="M625.222,255L617.244,261C609.267,267,593.311,279,571.297,290.669C549.283,302.338,521.211,313.677,507.175,319.346L493.139,325.015"></path><path marker-end="url(#jp-mermaid-42_flowchart-pointEnd)" style="fill:none;" class="edge-thickness-normal edge-pattern-solid flowchart-link LS-Nc5f972e8ee LE-N36b7e7fe57" id="L-Nc5f972e8ee-N36b7e7fe57-0" d="M657.107,255L659.47,261C661.833,267,666.559,279,668.922,290.117C671.285,301.233,671.285,311.467,671.285,316.583L671.285,321.7"></path><path marker-end="url(#jp-mermaid-42_flowchart-pointEnd)" style="fill:none;" class="edge-thickness-normal edge-pattern-solid flowchart-link LS-N36b7e7fe57 LE-Neac43149f1" id="L-N36b7e7fe57-Neac43149f1-0" d="M646.687,364L638.709,370C630.731,376,614.776,388,602.333,399.323C589.889,410.647,580.958,421.293,576.493,426.616L572.027,431.94"></path><path marker-end="url(#jp-mermaid-42_flowchart-pointEnd)" style="fill:none;" class="edge-thickness-normal edge-pattern-solid flowchart-link LS-N36b7e7fe57 LE-Neac43149f1" id="L-N36b7e7fe57-Neac43149f1-1" d="M672.212,364L672.513,370C672.813,376,673.414,388,661.209,399.637C649.003,411.274,623.99,422.548,611.484,428.185L598.978,433.822"></path></g><g class="edgeLabels"><g transform="translate(319.51171875, 73)" class="edgeLabel"><g transform="translate(-10.84375, -11)" class="label"><foreignObject height="22" width="21.6875"><div style="display: inline-block; white-space: nowrap;" xmlns="http://www.w3.org/1999/xhtml"><span class="edgeLabel">lhs</span></div></foreignObject></g></g><g transform="translate(122.80859375, 182)" class="edgeLabel"><g transform="translate(-10.84375, -11)" class="label"><foreignObject height="22" width="21.6875"><div style="display: inline-block; white-space: nowrap;" xmlns="http://www.w3.org/1999/xhtml"><span class="edgeLabel">lhs</span></div></foreignObject></g></g><g transform="translate(101.34375, 291)" class="edgeLabel"><g transform="translate(-10.84375, -11)" class="label"><foreignObject height="22" width="21.6875"><div style="display: inline-block; white-space: nowrap;" xmlns="http://www.w3.org/1999/xhtml"><span class="edgeLabel">lhs</span></div></foreignObject></g></g><g transform="translate(326.45703125, 291)" class="edgeLabel"><g transform="translate(-12.0859375, -11)" class="label"><foreignObject height="22" width="24.171875"><div style="display: inline-block; white-space: nowrap;" xmlns="http://www.w3.org/1999/xhtml"><span class="edgeLabel">rhs</span></div></foreignObject></g></g><g transform="translate(511.515625, 182)" class="edgeLabel"><g transform="translate(-12.0859375, -11)" class="label"><foreignObject height="22" width="24.171875"><div style="display: inline-block; white-space: nowrap;" xmlns="http://www.w3.org/1999/xhtml"><span class="edgeLabel">rhs</span></div></foreignObject></g></g><g transform="translate(369.38671875, 291)" class="edgeLabel"><g transform="translate(-10.84375, -11)" class="label"><foreignObject height="22" width="21.6875"><div style="display: inline-block; white-space: nowrap;" xmlns="http://www.w3.org/1999/xhtml"><span class="edgeLabel">lhs</span></div></foreignObject></g></g><g transform="translate(277.00390625, 400)" class="edgeLabel"><g transform="translate(-10.84375, -11)" class="label"><foreignObject height="22" width="21.6875"><div style="display: inline-block; white-space: nowrap;" xmlns="http://www.w3.org/1999/xhtml"><span class="edgeLabel">lhs</span></div></foreignObject></g></g><g transform="translate(345.6640625, 400)" class="edgeLabel"><g transform="translate(-12.0859375, -11)" class="label"><foreignObject height="22" width="24.171875"><div style="display: inline-block; white-space: nowrap;" xmlns="http://www.w3.org/1999/xhtml"><span class="edgeLabel">rhs</span></div></foreignObject></g></g><g transform="translate(537.6796875, 345.5)" class="edgeLabel"><g transform="translate(-12.0859375, -11)" class="label"><foreignObject height="22" width="24.171875"><div style="display: inline-block; white-space: nowrap;" xmlns="http://www.w3.org/1999/xhtml"><span class="edgeLabel">rhs</span></div></foreignObject></g></g><g transform="translate(649.8203125, 127.5)" class="edgeLabel"><g transform="translate(-12.0859375, -11)" class="label"><foreignObject height="22" width="24.171875"><div style="display: inline-block; white-space: nowrap;" xmlns="http://www.w3.org/1999/xhtml"><span class="edgeLabel">rhs</span></div></foreignObject></g></g><g transform="translate(577.35546875, 291)" class="edgeLabel"><g transform="translate(-10.84375, -11)" class="label"><foreignObject height="22" width="21.6875"><div style="display: inline-block; white-space: nowrap;" xmlns="http://www.w3.org/1999/xhtml"><span class="edgeLabel">lhs</span></div></foreignObject></g></g><g transform="translate(671.28515625, 291)" class="edgeLabel"><g transform="translate(-12.0859375, -11)" class="label"><foreignObject height="22" width="24.171875"><div style="display: inline-block; white-space: nowrap;" xmlns="http://www.w3.org/1999/xhtml"><span class="edgeLabel">rhs</span></div></foreignObject></g></g><g transform="translate(598.8203125, 400)" class="edgeLabel"><g transform="translate(-10.84375, -11)" class="label"><foreignObject height="22" width="21.6875"><div style="display: inline-block; white-space: nowrap;" xmlns="http://www.w3.org/1999/xhtml"><span class="edgeLabel">lhs</span></div></foreignObject></g></g><g transform="translate(674.015625, 400)" class="edgeLabel"><g transform="translate(-12.0859375, -11)" class="label"><foreignObject height="22" width="24.171875"><div style="display: inline-block; white-space: nowrap;" xmlns="http://www.w3.org/1999/xhtml"><span class="edgeLabel">rhs</span></div></foreignObject></g></g></g><g class="nodes"><g transform="translate(388.6640625, 18.5)" id="flowchart-Nebe0a04826-2331" class="node default default flowchart-label"><rect height="37" width="91.90625" y="-18.5" x="-45.953125" ry="0" rx="0" style="" class="basic label-container"></rect><g transform="translate(-38.453125, -11)" style="" class="label"><rect></rect><foreignObject height="22" width="76.90625"><div style="display: inline-block; white-space: nowrap;" xmlns="http://www.w3.org/1999/xhtml"><span class="nodeLabel">BINARY[+]</span></div></foreignObject></g></g><g transform="translate(319.51171875, 127.5)" id="flowchart-N981c729bc0-2332" class="node default default flowchart-label"><rect height="37" width="87.90625" y="-18.5" x="-43.953125" ry="0" rx="0" style="" class="basic label-container"></rect><g transform="translate(-36.453125, -11)" style="" class="label"><rect></rect><foreignObject height="22" width="72.90625"><div style="display: inline-block; white-space: nowrap;" xmlns="http://www.w3.org/1999/xhtml"><span class="nodeLabel">BINARY[-]</span></div></foreignObject></g></g><g transform="translate(122.80859375, 236.5)" id="flowchart-N57ccd587e2-2335" class="node default default flowchart-label"><rect height="37" width="91.90625" y="-18.5" x="-45.953125" ry="0" rx="0" style="" class="basic label-container"></rect><g transform="translate(-38.453125, -11)" style="" class="label"><rect></rect><foreignObject height="22" width="76.90625"><div style="display: inline-block; white-space: nowrap;" xmlns="http://www.w3.org/1999/xhtml"><span class="nodeLabel">BINARY[+]</span></div></foreignObject></g></g><g transform="translate(101.34375, 345.5)" id="flowchart-Ne2e32e7b31-2338" class="node default default flowchart-label"><rect height="37" width="202.6875" y="-18.5" x="-101.34375" ry="0" rx="0" style="" class="basic label-container"></rect><g transform="translate(-93.84375, -11)" style="" class="label"><rect></rect><foreignObject height="22" width="187.6875"><div style="display: inline-block; white-space: nowrap;" xmlns="http://www.w3.org/1999/xhtml"><span class="nodeLabel">Literal[Int32: temp_17]: 1</span></div></foreignObject></g></g><g transform="translate(442.421875, 345.5)" id="flowchart-N0addac95fb-2341" class="node default default flowchart-label"><rect height="37" width="96.34375" y="-18.5" x="-48.171875" ry="0" rx="0" style="" class="basic label-container"></rect><g transform="translate(-40.671875, -11)" style="" class="label"><rect></rect><foreignObject height="22" width="81.34375"><div style="display: inline-block; white-space: nowrap;" xmlns="http://www.w3.org/1999/xhtml"><span class="nodeLabel">Variable[b]</span></div></foreignObject></g></g><g transform="translate(511.515625, 236.5)" id="flowchart-N826d27e2c5-2344" class="node default default flowchart-label"><rect height="37" width="88.703125" y="-18.5" x="-44.3515625" ry="0" rx="0" style="" class="basic label-container"></rect><g transform="translate(-36.8515625, -11)" style="" class="label"><rect></rect><foreignObject height="22" width="73.703125"><div style="display: inline-block; white-space: nowrap;" xmlns="http://www.w3.org/1999/xhtml"><span class="nodeLabel">BINARY[/]</span></div></foreignObject></g></g><g transform="translate(298.46875, 345.5)" id="flowchart-N01e47c672a-2347" class="node default default flowchart-label"><rect height="37" width="91.5625" y="-18.5" x="-45.78125" ry="0" rx="0" style="" class="basic label-container"></rect><g transform="translate(-38.28125, -11)" style="" class="label"><rect></rect><foreignObject height="22" width="76.5625"><div style="display: inline-block; white-space: nowrap;" xmlns="http://www.w3.org/1999/xhtml"><span class="nodeLabel">BINARY[*]</span></div></foreignObject></g></g><g transform="translate(553.1015625, 454.5)" id="flowchart-Neac43149f1-2350" class="node default default flowchart-label"><rect height="37" width="95.46875" y="-18.5" x="-47.734375" ry="0" rx="0" style="" class="basic label-container"></rect><g transform="translate(-40.234375, -11)" style="" class="label"><rect></rect><foreignObject height="22" width="80.46875"><div style="display: inline-block; white-space: nowrap;" xmlns="http://www.w3.org/1999/xhtml"><span class="nodeLabel">Variable[a]</span></div></foreignObject></g></g><g transform="translate(273.9765625, 454.5)" id="flowchart-Ne08c2337b8-2353" class="node default default flowchart-label"><rect height="37" width="94.171875" y="-18.5" x="-47.0859375" ry="0" rx="0" style="" class="basic label-container"></rect><g transform="translate(-39.5859375, -11)" style="" class="label"><rect></rect><foreignObject height="22" width="79.171875"><div style="display: inline-block; white-space: nowrap;" xmlns="http://www.w3.org/1999/xhtml"><span class="nodeLabel">Variable[c]</span></div></foreignObject></g></g><g transform="translate(649.8203125, 236.5)" id="flowchart-Nc5f972e8ee-2359" class="node default default flowchart-label"><rect height="37" width="87.90625" y="-18.5" x="-43.953125" ry="0" rx="0" style="" class="basic label-container"></rect><g transform="translate(-36.453125, -11)" style="" class="label"><rect></rect><foreignObject height="22" width="72.90625"><div style="display: inline-block; white-space: nowrap;" xmlns="http://www.w3.org/1999/xhtml"><span class="nodeLabel">BINARY[-]</span></div></foreignObject></g></g><g transform="translate(671.28515625, 345.5)" id="flowchart-N36b7e7fe57-2365" class="node default default flowchart-label"><rect height="37" width="88.703125" y="-18.5" x="-44.3515625" ry="0" rx="0" style="" class="basic label-container"></rect><g transform="translate(-36.8515625, -11)" style="" class="label"><rect></rect><foreignObject height="22" width="73.703125"><div style="display: inline-block; white-space: nowrap;" xmlns="http://www.w3.org/1999/xhtml"><span class="nodeLabel">BINARY[/]</span></div></foreignObject></g></g></g></g></g></svg>